<svg width="20" height="20" viewBox="0 0 20 20" fill="none" xmlns="http://www.w3.org/2000/svg">
<path d="M10 0C15.5142 0 20 4.48582 20 10C20 15.5142 15.5142 20 10 20C4.48582 20 0 15.5142 0 10C0 4.48582 4.48582 0 10 0ZM6.91082 10.5892L11.0775 14.7558C11.24 14.9183 11.4533 15 11.6667 15C11.88 15 12.0934 14.9183 12.2559 14.7558C12.5817 14.43 12.5817 13.9033 12.2559 13.5775L8.67832 10L12.2558 6.4225C12.5816 6.09668 12.5816 5.57 12.2558 5.24418C11.93 4.91836 11.4033 4.91836 11.0775 5.24418L6.91082 9.41086C6.585 9.73668 6.585 10.2633 6.91082 10.5892Z" fill="white"/>
</svg>
