<svg width="32" height="33" viewBox="0 0 32 33" fill="none" xmlns="http://www.w3.org/2000/svg">
<path d="M31.1204 6.57153C30.5271 5.89404 29.6816 5.52075 28.7397 5.52075H21.6282V1.4375C21.6282 0.919678 21.2085 0.5 20.6907 0.5H15.6699C15.1521 0.5 14.7324 0.919678 14.7324 1.4375V5.52075H5.96265L5.7334 3.802C5.48633 1.95044 4.19727 0.5 2.79858 0.5H1.125C0.607178 0.5 0.1875 0.919678 0.1875 1.4375C0.1875 1.95532 0.607178 2.375 1.125 2.375H2.79858C3.09937 2.375 3.73633 3.01099 3.87476 4.0498L6.55835 24.1772C6.67651 25.0645 7.13233 25.895 7.8418 26.5161C8.36792 26.9768 8.98975 27.2832 9.64111 27.4114C9.37573 27.8994 9.2251 28.4585 9.2251 29.052C9.2251 30.9534 10.7717 32.5 12.6729 32.5C14.574 32.5 16.1209 30.9534 16.1209 29.052C16.1209 28.4856 15.9827 27.9512 15.7395 27.4792H20.6521C20.4089 27.9512 20.2708 28.4856 20.2708 29.052C20.2708 30.9534 21.8174 32.5 23.7188 32.5C25.6199 32.5 27.1665 30.9534 27.1665 29.052C27.1665 28.4856 27.0283 27.9512 26.7854 27.4792H29.2417C29.7593 27.4792 30.1792 27.0593 30.1792 26.5417C30.1792 26.0239 29.7593 25.6042 29.2417 25.6042H10.3298C9.41382 25.6042 8.53784 24.8372 8.41675 23.9292L8.2207 22.4583H26.7312C27.6262 22.4583 28.5098 22.1162 29.2192 21.4954C29.9285 20.8743 30.3843 20.0435 30.5029 19.1562L31.8474 9.0708C31.9719 8.13696 31.7139 7.24927 31.1204 6.57153ZM14.2459 29.052C14.2459 29.9194 13.5403 30.625 12.6729 30.625C11.8057 30.625 11.1001 29.9194 11.1001 29.052C11.1001 28.1848 11.8057 27.4792 12.6729 27.4792C13.5403 27.4792 14.2459 28.1848 14.2459 29.052ZM25.2918 29.052C25.2918 29.9194 24.5862 30.625 23.7188 30.625C22.8516 30.625 22.146 29.9194 22.146 29.052C22.146 28.1848 22.8516 27.4792 23.7188 27.4792C24.5862 27.4792 25.2918 28.1848 25.2918 29.052ZM16.6074 2.375H19.7532V6.44751C19.7532 6.45117 19.7527 6.45459 19.7527 6.45825C19.7527 6.46191 19.7532 6.46558 19.7532 6.46924V11.4792C19.7532 11.9968 20.1729 12.4167 20.6907 12.4167H21.0212L18.2363 15.1794L15.4514 12.4167H15.6699C16.1877 12.4167 16.6074 11.9968 16.6074 11.4792V2.375ZM29.9888 8.82275L28.6443 18.9084C28.5232 19.8162 27.6472 20.5833 26.7312 20.5833H7.9707L6.21265 7.39575H14.7324V10.5417H13.1751C12.7952 10.5417 12.4529 10.771 12.3084 11.1221C12.1636 11.4734 12.2451 11.8772 12.5149 12.1448L17.5762 17.1655C17.7588 17.3469 17.9976 17.4375 18.2363 17.4375C18.4751 17.4375 18.7139 17.3469 18.8965 17.1655L23.9578 12.1448C24.2275 11.8772 24.3091 11.4734 24.1643 11.1221C24.0198 10.771 23.6775 10.5417 23.2976 10.5417H21.6282V7.39575H28.7397C29.1333 7.39575 29.4778 7.54175 29.7097 7.80664C29.9417 8.07178 30.0408 8.43262 29.9888 8.82275Z" fill="#FFB800"/>
</svg>
