<svg width="81" height="81" viewBox="0 0 81 81" fill="none" xmlns="http://www.w3.org/2000/svg">
<path d="M78.3009 15.6788C76.8178 13.9851 74.7041 13.0519 72.3494 13.0519H54.5704V2.84375C54.5704 1.54919 53.5212 0.5 52.2267 0.5H39.6748C38.3803 0.5 37.3311 1.54919 37.3311 2.84375V13.0519H15.4066L14.8335 8.755C14.2158 4.1261 10.9932 0.5 7.49646 0.5H3.3125C2.01794 0.5 0.96875 1.54919 0.96875 2.84375C0.96875 4.13831 2.01794 5.1875 3.3125 5.1875H7.49646C8.24841 5.1875 9.84082 6.77747 10.1869 9.37451L16.8959 59.6931C17.1913 61.9111 18.3308 63.9875 20.1045 65.5403C21.4198 66.692 22.9744 67.458 24.6028 67.7784C23.9393 68.9985 23.5627 70.3962 23.5627 71.88C23.5627 76.6334 27.4293 80.5 32.1821 80.5C36.9349 80.5 40.8021 76.6334 40.8021 71.88C40.8021 70.464 40.4567 69.1279 39.8488 67.9481H52.1303C51.5223 69.1279 51.1769 70.464 51.1769 71.88C51.1769 76.6334 55.0435 80.5 59.7969 80.5C64.5497 80.5 68.4163 76.6334 68.4163 71.88C68.4163 70.464 68.0708 69.1279 67.4635 67.9481H73.6043C74.8982 67.9481 75.948 66.8983 75.948 65.6044C75.948 64.3098 74.8982 63.2606 73.6043 63.2606H26.3246C24.0345 63.2606 21.8446 61.3429 21.5419 59.073L21.0518 55.3956H67.328C69.5656 55.3956 71.7744 54.5405 73.5481 52.9884C75.3212 51.4357 76.4607 49.3586 76.7573 47.1406L80.1185 21.927C80.4298 19.5924 79.7847 17.3732 78.3009 15.6788ZM36.1146 71.88C36.1146 74.0486 34.3507 75.8125 32.1821 75.8125C30.0142 75.8125 28.2502 74.0486 28.2502 71.88C28.2502 69.712 30.0142 67.9481 32.1821 67.9481C34.3507 67.9481 36.1146 69.712 36.1146 71.88ZM63.7294 71.88C63.7294 74.0486 61.9655 75.8125 59.7969 75.8125C57.6289 75.8125 55.865 74.0486 55.865 71.88C55.865 69.712 57.6289 67.9481 59.7969 67.9481C61.9655 67.9481 63.7294 69.712 63.7294 71.88ZM42.0186 5.1875H49.8829V15.3688C49.8829 15.3779 49.8817 15.3865 49.8817 15.3956C49.8817 15.4048 49.8829 15.4139 49.8829 15.4231V27.9481C49.8829 29.2421 50.9321 30.2919 52.2267 30.2919H53.0531L46.0908 37.1986L39.1285 30.2919H39.6748C40.9694 30.2919 42.0186 29.2421 42.0186 27.9481V5.1875ZM75.4719 21.3069L72.1107 46.5211C71.808 48.7904 69.618 50.7081 67.328 50.7081H20.4268L16.0316 17.7394H37.3311V25.6044H33.4376C32.4879 25.6044 31.6322 26.1775 31.2709 27.0552C30.9089 27.9335 31.1128 28.943 31.7872 29.6119L44.4404 42.1638C44.897 42.6173 45.4939 42.8438 46.0908 42.8438C46.6877 42.8438 47.2847 42.6173 47.7412 42.1638L60.3944 29.6119C61.0689 28.943 61.2727 27.9335 60.9108 27.0552C60.5494 26.1775 59.6937 25.6044 58.744 25.6044H54.5704V17.7394H72.3494C73.3333 17.7394 74.1945 18.1044 74.7743 18.7666C75.3541 19.4294 75.6019 20.3315 75.4719 21.3069Z" fill="#FFB800"/>
</svg>
