<svg width="20" height="20" viewBox="0 0 20 20" fill="none" xmlns="http://www.w3.org/2000/svg">
<g clip-path="url(#clip0)">
<path d="M12.0926 10.4379L19.1965 3.33374C19.3919 3.13818 19.4997 2.87727 19.5 2.59907C19.5 2.32071 19.3922 2.0595 19.1965 1.86425L18.5739 1.24188C18.3782 1.04586 18.1173 0.938499 17.8388 0.938499C17.5608 0.938499 17.2999 1.04586 17.1041 1.24188L10.0003 8.34557L2.89616 1.24188C2.70076 1.04586 2.4397 0.938499 2.16134 0.938499C1.88329 0.938499 1.62224 1.04586 1.42683 1.24188L0.804 1.86425C0.398667 2.26958 0.398667 2.92887 0.804 3.33374L7.90799 10.4379L0.804 17.5417C0.608439 17.7376 0.500772 17.9985 0.500772 18.2767C0.500772 18.5549 0.608439 18.8158 0.804 19.0115L1.42667 19.6339C1.62208 19.8298 1.88329 19.9373 2.16119 19.9373C2.43954 19.9373 2.7006 19.8298 2.89601 19.6339L10.0002 12.5301L17.104 19.6339C17.2997 19.8298 17.5606 19.9373 17.8387 19.9373H17.839C18.1172 19.9373 18.3781 19.8298 18.5738 19.6339L19.1963 19.0115C19.3917 18.816 19.4995 18.5549 19.4995 18.2767C19.4995 17.9985 19.3917 17.7376 19.1963 17.5419L12.0926 10.4379Z" fill="#CAD7F9"/>
</g>
<defs>
<clipPath id="clip0">
<rect width="19" height="19" fill="white" transform="translate(0.5 0.937531)"/>
</clipPath>
</defs>
</svg>
